<svg width="317" height="280" viewBox="0 0 317 280" fill="none" xmlns="http://www.w3.org/2000/svg">
    <path
        d="M148.29 0.50293C149.727 0.475433 151.283 0.645559 154.544 0.996094C164.25 2.03902 170.58 4.35698 180.949 10.6943C188.081 15.0529 192.371 19.2403 194.856 24.1777C196.168 26.7835 197.99 32.3882 199.505 38.0098C201.022 43.6386 202.2 49.1727 202.262 51.6416C202.272 52.0312 202.602 52.1964 202.732 52.248C202.9 52.3146 203.101 52.3457 203.295 52.3594C203.694 52.3874 204.214 52.3515 204.764 52.2559C206.059 52.0306 207.222 52.2916 208.258 52.9941C209.305 53.7046 210.247 54.8854 211.039 56.5352C212.626 59.8401 213.557 64.9074 213.601 71.3838C213.632 76.0684 213.125 79.2084 211.837 81.4473C210.564 83.6593 208.48 85.0686 205.153 86.1758C204.104 86.5249 203.082 86.9666 202.275 87.4014C201.873 87.6185 201.515 87.8389 201.231 88.0498C200.998 88.2238 200.77 88.4226 200.627 88.6387L200.571 88.7314C200.354 89.1375 200.142 89.8874 199.932 90.8438C199.716 91.8224 199.489 93.0804 199.258 94.5488C198.794 97.487 198.309 101.291 197.857 105.438C196.955 113.729 196.188 123.416 196.011 130.333C195.84 136.951 195.883 140.816 196.741 143.753C197.612 146.732 199.311 148.722 202.278 151.633C205.021 154.322 206.912 155.979 208.657 156.948C210.435 157.935 212.038 158.198 214.163 158.178C218.549 158.136 223.202 159.93 228.605 163.834C234.904 168.384 245.67 173.347 258.579 177.676C265.787 180.093 269.891 181.529 273.204 183.018C276.507 184.501 279.032 186.04 283.077 188.677C287.376 191.478 289.825 193.173 291.833 195.061C293.837 196.944 295.417 199.032 297.95 202.649C301.223 207.323 302.987 210.043 304.168 213.159C305.351 216.281 305.958 219.822 306.857 226.157C307.752 232.464 308.86 238.52 310.134 244.072C310.426 245.345 311.174 249.418 311.797 253.126C314.064 266.631 315.539 275.729 315.809 277.865L316.016 279.5H0.575195L0.84375 277.579C1.32472 274.137 1.72033 271.957 2.4248 269.79C3.13027 267.62 4.15096 265.444 5.90332 262.019C6.94295 259.986 7.92587 257.944 8.67188 256.289C9.04472 255.462 9.35962 254.728 9.59375 254.14C9.82192 253.566 9.98885 253.091 10.0439 252.801C10.2157 251.898 11.0322 249.19 11.8652 246.781C12.2874 245.561 12.6706 244.218 12.9492 243.034C13.2243 241.865 13.4091 240.806 13.4102 240.173C13.4148 237.198 14.0359 235.171 14.916 233.97C15.7783 232.793 16.8903 232.394 18.0264 232.626C19.1975 232.865 20.4854 233.794 21.5801 235.474C22.6698 237.145 23.5414 239.525 23.8857 242.567C24.0813 244.296 24.4425 245.739 24.7881 246.432C24.8698 246.595 24.985 246.79 25.1475 246.915C25.2351 246.983 25.3846 247.067 25.5801 247.055C25.7875 247.041 25.9332 246.927 26.0186 246.822C26.1625 246.646 26.2181 246.402 26.248 246.205C26.2822 245.98 26.2988 245.695 26.2988 245.351C26.2989 245.038 26.3849 244.35 26.5381 243.463C26.6888 242.59 26.8971 241.564 27.126 240.597C27.5908 238.632 28.667 233.465 29.5186 229.113C30.3118 225.06 31.3417 220.469 32.2637 216.732C32.7247 214.864 33.1576 213.213 33.5205 211.951C33.702 211.32 33.865 210.79 34.0039 210.381C34.147 209.96 34.2537 209.702 34.3184 209.589L34.3174 209.588C34.3515 209.528 34.4707 209.366 34.6885 209.094C34.8969 208.833 35.1744 208.5 35.502 208.116C36.1568 207.349 37.0055 206.388 37.8887 205.418C39.6636 203.469 42.2084 200.605 43.5459 199.051C44.3667 198.097 45.9439 196.89 48.0488 195.562C50.1414 194.243 52.7167 192.829 55.498 191.46C61.0648 188.719 67.4218 186.173 72.3447 184.906C77.2452 183.646 82.6868 181.287 85.8447 179.039C86.9396 178.259 89.1257 177.101 91.209 176.13C92.2456 175.647 93.2442 175.216 94.0537 174.907C94.4589 174.753 94.8114 174.631 95.0938 174.549C95.391 174.462 95.5653 174.433 95.6377 174.433C96.4213 174.432 97.4482 174.138 98.583 173.668C99.7323 173.192 101.045 172.514 102.418 171.698C105.164 170.066 108.187 167.861 110.679 165.562C112.13 164.222 113.53 163.048 114.646 162.213C115.204 161.795 115.684 161.467 116.059 161.246C116.246 161.135 116.399 161.057 116.517 161.008C116.646 160.953 116.687 160.954 116.67 160.954C117.087 160.954 117.697 160.799 118.311 160.589C118.943 160.373 119.644 160.075 120.265 159.746C121.432 159.127 123.094 158.483 123.927 158.313C126.106 157.871 127.424 155.77 127.979 152.857C128.539 149.915 128.37 145.96 127.421 141.426C127.041 139.611 126.737 138.458 126.075 137.305C125.422 136.166 124.434 135.049 122.754 133.266C119.276 129.573 117.098 127.087 115.548 124.861C114.006 122.647 113.079 120.681 112.12 118.016C110.761 114.237 108.707 107.795 107.887 104.77L107.739 104.212L107.652 103.897C107.213 102.431 106.318 100.976 105.174 99.8545L104.925 99.6191C104.21 98.9688 103.659 98.3262 103.2 97.4355C102.738 96.5366 102.358 95.3611 102.022 93.6309C101.35 90.1583 100.876 84.57 100.203 74.7471C100.036 72.3075 99.846 70.475 99.6084 69.126C99.3741 67.7959 99.083 66.8627 98.665 66.2842H98.6641L96.7666 63.6465C96.194 62.8469 96.1146 62.1561 96.3789 61.5381C96.6258 60.961 97.2077 60.3601 98.207 59.7812L98.6611 59.5342C99.3651 59.1751 99.9568 58.856 100.419 58.46C100.901 58.0468 101.233 57.5594 101.453 56.8848C101.667 56.2302 101.774 55.4055 101.83 54.3184C101.887 53.2268 101.894 51.8318 101.894 50.0234C101.894 35.1568 106.575 23.8237 115.474 16.8408C123.312 10.6904 128.094 7.1289 131.942 4.92969C135.764 2.74566 138.665 1.90504 142.754 1.2207C145.542 0.754045 146.859 0.530342 148.29 0.50293Z"
        stroke="#475569" />
</svg>