<svg width="24" height="24" viewBox="0 0 24 24" fill="none" xmlns="http://www.w3.org/2000/svg">
<path d="M7.00013 18.9999C6.27691 18.9995 5.56238 18.8422 4.90584 18.5389C4.2493 18.2355 3.66638 17.7934 3.1973 17.2429C2.72821 16.6925 2.38413 16.0468 2.18878 15.3504C1.99343 14.6541 1.95147 13.9237 2.06579 13.2095C2.18012 12.4954 2.448 11.8146 2.85096 11.214C3.25393 10.6135 3.78238 10.1075 4.39986 9.73095C5.01735 9.35443 5.70916 9.11634 6.42758 9.03312C7.146 8.9499 7.87392 9.02352 8.56113 9.24891C9.1957 7.76654 10.3225 6.54862 11.7511 5.80085C13.1797 5.05309 14.8226 4.82133 16.4023 5.1447C17.9821 5.46807 19.4018 6.32677 20.4217 7.57574C21.4415 8.82472 21.9991 10.3874 22.0001 11.9999C22.0001 13.8564 21.2626 15.6369 19.9499 16.9497C18.6371 18.2624 16.8566 18.9999 15.0001 18.9999H7.00013ZM7.00013 16.9999H15.0001C15.9031 16.9995 16.7891 16.7546 17.5641 16.2911C18.339 15.8277 18.974 15.163 19.4016 14.3677C19.8292 13.5724 20.0335 12.6761 19.9927 11.7741C19.9519 10.872 19.6676 9.99788 19.17 9.24441C18.6724 8.49093 17.98 7.88628 17.1664 7.49465C16.3528 7.10302 15.4483 6.93904 14.549 7.0201C13.6496 7.10116 12.789 7.42425 12.0586 7.95506C11.3281 8.48588 10.755 9.20459 10.4001 10.0349L9.68013 11.7209L7.93813 11.1489C7.52591 11.0139 7.08931 10.9699 6.65843 11.0199C6.22756 11.07 5.81266 11.2128 5.44233 11.4387C5.07201 11.6646 4.75507 11.968 4.51336 12.3282C4.27165 12.6884 4.11093 13.0967 4.04226 13.525C3.9736 13.9533 3.99863 14.3914 4.11564 14.8091C4.23264 15.2268 4.43883 15.6142 4.71999 15.9445C5.00115 16.2748 5.3506 16.5402 5.74425 16.7224C6.13789 16.9046 6.56636 16.9993 7.00013 16.9999Z" fill="#475569"/>
</svg>
