<svg width="24" height="24" viewBox="0 0 24 24" fill="none" xmlns="http://www.w3.org/2000/svg">
<path d="M12.5488 2.26003C12.2878 2.08709 11.9808 1.99654 11.6677 2.0001C11.3546 2.00367 11.0498 2.10119 10.7928 2.28003L2.92781 7.76003C2.50781 8.05203 2.25781 8.53003 2.25781 9.04203V14.945C2.25781 15.47 2.52181 15.959 2.95981 16.248L10.9538 21.533C11.2094 21.702 11.509 21.7921 11.8153 21.7921C12.1217 21.7921 12.4213 21.702 12.6768 21.533L20.8298 16.147C21.2678 15.857 21.5308 15.367 21.5308 14.843V9.04303C21.5308 8.51903 21.2678 8.03003 20.8308 7.74003L12.5488 2.26003ZM18.6388 8.65303L15.6248 10.676L12.7988 8.62103L12.7808 4.57903L18.6378 8.65303H18.6388ZM10.7368 4.58303V8.54003L7.83981 10.564L4.95281 8.62703L10.7368 4.58303V4.58303ZM4.15981 10.576L6.02981 11.829L4.15981 13.137V10.577V10.576ZM10.7848 19.009L4.95381 15.1L7.86681 13.063L10.7868 15.021V19.011L10.7848 19.009ZM9.67981 11.796L11.5678 10.476L13.7678 11.921L11.8178 13.231L9.67981 11.796ZM12.8468 19.009V15.019L15.6368 13.149L18.6398 15.124L12.8468 19.009V19.009ZM19.4718 13.204L17.4918 11.904L19.4718 10.575V13.205V13.204Z" fill="#0F172A"/>
</svg>
