<svg width="64" height="64" viewBox="0 0 64 64" fill="none" xmlns="http://www.w3.org/2000/svg">
<path d="M17.9873 10.6666H46.1683C46.1683 10.6666 43.82 46.0189 32.0779 46.0189C26.3418 46.0189 22.8474 37.5826 20.7734 28.9522C18.6017 19.9158 17.9873 10.6666 17.9873 10.6666Z" stroke="#BE123C" stroke-width="1.5" stroke-linecap="round" stroke-linejoin="round"/>
<path d="M46.1689 10.6667C46.1689 10.6667 48.6255 8.04623 50.6671 7.99999C54.6671 7.90943 55.4065 10.6667 55.4065 10.6667C56.1895 12.2921 56.8156 16.5181 53.0583 20.4191C49.3007 24.32 45.0945 27.7333 43.3828 28.9523" stroke="#BE123C" stroke-width="1.5" stroke-linecap="round" stroke-linejoin="round"/>
<path d="M17.9875 10.6667C17.9875 10.6667 15.4281 8.01637 13.3333 8.00002C9.33333 7.9688 8.59384 10.6667 8.59384 10.6667C7.81101 12.2921 7.18477 16.5181 10.9423 20.4191C14.6997 24.32 19.0621 27.7333 20.7736 28.9525" stroke="#BE123C" stroke-width="1.5" stroke-linecap="round" stroke-linejoin="round"/>
<path d="M22.6846 53.3333C22.6846 48.4571 32.0781 46.0189 32.0781 46.0189C32.0781 46.0189 41.472 48.4571 41.472 53.3333H22.6846Z" stroke="#BE123C" stroke-width="1.5" stroke-linecap="round" stroke-linejoin="round"/>
</svg>
