<svg width="96" height="96" viewBox="0 0 96 96" fill="none" xmlns="http://www.w3.org/2000/svg">
<path d="M71.28 50.092C71.5608 49.6512 71.7502 49.1585 71.837 48.6432C71.9238 48.1278 71.9062 47.6003 71.7854 47.0918C71.6645 46.5834 71.4428 46.1044 71.1334 45.6832C70.8239 45.2621 70.4331 44.9073 69.984 44.64L30.296 20.512C29.6506 20.1213 28.9104 19.9152 28.156 19.916C25.916 19.916 24.104 21.688 24.104 23.876V72.12C24.104 72.86 24.316 73.584 24.716 74.212C25.9 76.068 28.396 76.636 30.296 75.48L69.984 51.356C70.508 51.036 70.956 50.6 71.284 50.088L71.28 50.092ZM74.264 58.08L34.58 82.204C28.88 85.672 21.38 83.964 17.836 78.4C16.6378 76.5245 16.0008 74.3456 16 72.12V23.88C16 17.316 21.44 12 28.16 12C30.428 12 32.652 12.62 34.58 13.792L74.264 37.92C79.964 41.384 81.712 48.704 78.164 54.272C77.18 55.816 75.844 57.12 74.264 58.08Z" fill="white"/>
</svg>
