<svg width="34" height="32" viewBox="0 0 34 32" fill="none" xmlns="http://www.w3.org/2000/svg">
    <path
        d="M22.681 26.4845L1.2684 11.714C-0.901507 10.2173 -0.163881 7.10088 2.54194 6.36802L25.2997 0.191307C25.7818 0.0173566 26.2984 -0.0391112 26.8067 0.0265948C27.3149 0.0923008 27.8002 0.278283 28.2223 0.569108C28.6442 0.859932 28.9908 1.24721 29.2331 1.6988C29.4754 2.15038 29.6066 2.65326 29.6157 3.16568L28.2669 24.1116C28.107 26.5978 24.8509 27.9812 22.681 26.4845Z"
        fill="#94A3B8" />
    <path
        d="M15.8901 30.1304L3.27525 5.46053C2.98688 4.89616 2.85999 4.26311 2.90856 3.6312C2.95712 2.99929 3.17927 2.39306 3.55048 1.87938C3.92171 1.36571 4.42758 0.964525 5.01232 0.720082C5.59706 0.475639 6.23795 0.397437 6.86431 0.494104L30.2428 4.10225C30.7809 4.18533 31.2918 4.39498 31.7333 4.71397C32.1747 5.03296 32.5341 5.45217 32.782 5.93712C33.0297 6.42208 33.159 6.95894 33.1589 7.50356C33.1588 8.04818 33.0294 8.58501 32.7815 9.06988L22.0119 30.1315C21.7227 30.6943 21.284 31.1665 20.7439 31.496C20.2038 31.8257 19.5834 32 18.9506 31.9998C18.3179 31.9997 17.6975 31.8252 17.1575 31.4954C16.6176 31.1655 16.1791 30.6932 15.8901 30.1304Z"
        fill="#94A3B8" />
    <path
        d="M23.5791 8.72693L19.0903 8L13.5791 9.57011L15.7789 14.0856L20.9301 17.8153C21.0438 17.8966 21.1688 17.959 21.3007 18L23.2573 13.9852L23.5791 8.72693Z"
        fill="white" />
</svg>